<?xml version="1.0" encoding="UTF-8" standalone="no"?>
<svg
   xmlns:dc="http://purl.org/dc/elements/1.1/"
   xmlns:cc="http://creativecommons.org/ns#"
   xmlns:rdf="http://www.w3.org/1999/02/22-rdf-syntax-ns#"
   xmlns:svg="http://www.w3.org/2000/svg"
   xmlns="http://www.w3.org/2000/svg"
   xmlns:sodipodi="http://sodipodi.sourceforge.net/DTD/sodipodi-0.dtd"
   xmlns:inkscape="http://www.inkscape.org/namespaces/inkscape"
   width="131.38173mm"
   height="11.740435mm"
   viewBox="0 0 131.38173 11.740435"
   version="1.1"
   id="svg8"
   inkscape:version="1.0beta2 (2b71d25, 2019-12-03)"
   sodipodi:docname="jaymatsushiba.svg">
  <defs
     id="defs2">
    <rect
       x="17.601114"
       y="15.08667"
       width="185.06316"
       height="24.390116"
       id="rect12" />
  </defs>
  <sodipodi:namedview
     fit-margin-bottom="0"
     fit-margin-right="0"
     fit-margin-left="0"
     fit-margin-top="0"
     id="base"
     pagecolor="#ffffff"
     bordercolor="#666666"
     borderopacity="1.0"
     inkscape:pageopacity="0.0"
     inkscape:pageshadow="2"
     inkscape:zoom="1.0522534"
     inkscape:cx="276.27266"
     inkscape:cy="14.897871"
     inkscape:document-units="mm"
     inkscape:current-layer="text10"
     inkscape:document-rotation="0"
     showgrid="false"
     inkscape:window-width="1440"
     inkscape:window-height="775"
     inkscape:window-x="0"
     inkscape:window-y="23"
     inkscape:window-maximized="0" />
  <metadata
     id="metadata5">
    <rdf:RDF>
      <cc:Work
         rdf:about="">
        <dc:format>image/svg+xml</dc:format>
        <dc:type
           rdf:resource="http://purl.org/dc/dcmitype/StillImage" />
        <dc:title></dc:title>
      </cc:Work>
    </rdf:RDF>
  </metadata>
  <g
     transform="translate(-17.686228,-17.950491)"
     inkscape:label="Layer 1"
     inkscape:groupmode="layer"
     id="layer1">
    <g
       aria-label="JAY MATSUSHIBA"
       id="text10"
       style="font-style:normal;font-weight:normal;font-size:14.1111px;line-height:0;font-family:sans-serif;word-spacing:-2.64583px;white-space:pre;shape-inside:url(#rect12);fill:#000000;fill-opacity:1;stroke:none">
      <path
         inkscape:connector-curvature="0"
         d="m 23.683447,18.45849 q -0.02822,0.197556 -0.05645,0.366889 -0.01411,0.169333 -0.02822,0.352778 -0.01411,0.183444 -0.02822,0.39511 0,0.197556 0,0.465667 v 6.29355 q 0,0.719666 -0.141111,1.241777 -0.141111,0.508 -0.437444,0.888999 -0.705555,0.889 -2.271887,0.889 -1.509888,0 -2.328332,-0.846666 -0.197555,-0.197556 -0.352777,-0.423333 -0.141111,-0.225778 -0.352778,-0.649111 l 1.114777,-0.465666 q 0.141111,0.324555 0.239889,0.507999 0.09878,0.183445 0.254,0.338667 0.507999,0.550333 1.439332,0.550333 0.90311,0 1.312332,-0.479778 0.423333,-0.493888 0.423333,-1.552221 v -6.29355 q 0,-0.508 -0.02822,-0.860777 -0.01411,-0.352778 -0.08467,-0.719667 z"
         style="font-style:normal;font-variant:normal;font-weight:300;font-stretch:normal;font-family:'.Aqua Kana';-inkscape-font-specification:'.Aqua Kana Light';fill:#0f1b26;fill-opacity:1"
         id="path934" />
      <path
         inkscape:connector-curvature="0"
         d="m 33.699682,29.182927 q -0.08467,-0.381 -0.197556,-0.747889 -0.112888,-0.366888 -0.239888,-0.691444 l -0.733777,-1.820332 h -4.924774 l -0.733778,1.820332 q -0.155222,0.409222 -0.268111,0.747889 -0.09878,0.324555 -0.169333,0.691444 h -1.467554 q 0.09878,-0.169334 0.183444,-0.310445 0.08467,-0.155222 0.155222,-0.324555 0.08467,-0.169333 0.183445,-0.395111 0.09878,-0.239888 0.239888,-0.592666 l 3.160887,-7.789327 q 0.197555,-0.493889 0.296333,-0.776111 0.09878,-0.296333 0.155222,-0.536222 h 1.425221 q 0.01411,0.09878 0.04233,0.197556 0.02822,0.09878 0.08467,0.239889 0.05644,0.141111 0.141111,0.352777 0.08467,0.197555 0.211666,0.522111 l 3.160887,7.789327 q 0.268111,0.635 0.423333,0.987777 0.169333,0.352778 0.324555,0.635 z m -3.33022,-8.889994 q -0.01411,-0.04233 -0.02822,-0.07056 -0.01411,-0.04233 -0.04233,-0.127 -0.02822,-0.08467 -0.08467,-0.239889 -0.05644,-0.169333 -0.155222,-0.465666 -0.05644,0.155222 -0.09878,0.282222 -0.02822,0.112889 -0.05644,0.183444 -0.07056,0.169334 -0.09878,0.282222 -0.02822,0.112889 -0.05644,0.155222 l -1.806221,4.656664 H 32.1898 Z"
         style="font-style:normal;font-variant:normal;font-weight:300;font-stretch:normal;font-family:'.Aqua Kana';-inkscape-font-specification:'.Aqua Kana Light';fill:#0f1b26;fill-opacity:1"
         id="path936" />
      <path
         inkscape:connector-curvature="0"
         d="m 38.135748,29.182927 q 0.07055,-0.395111 0.08467,-0.733778 0.02822,-0.352777 0.02822,-0.846666 v -2.920997 l -3.245553,-4.99533 Q 34.763195,19.291045 34.56564,19.022934 34.368084,18.740712 34.156418,18.45849 h 1.53811 q 0.08467,0.254 0.225777,0.522111 0.141111,0.254 0.465667,0.776111 l 2.44122,3.922886 2.44122,-3.922886 q 0.296333,-0.493889 0.437444,-0.762 0.155222,-0.282222 0.225778,-0.536222 h 1.552221 q -0.155222,0.183445 -0.366889,0.479778 -0.211666,0.296333 -0.493888,0.747888 l -3.245553,5.009441 v 2.906886 q 0,0.508 0.01411,0.860777 0.02822,0.338667 0.09878,0.719667 z"
         style="font-style:normal;font-variant:normal;font-weight:300;font-stretch:normal;font-family:'.Aqua Kana';-inkscape-font-specification:'.Aqua Kana Light';fill:#0f1b26;fill-opacity:1"
         id="path938" />
      <path
         inkscape:connector-curvature="0"
         d="M 51.865299,29.436926 Q 51.808854,29.09826 51.639521,28.618483 51.484299,28.124594 51.24441,27.531928 l -2.031998,-4.840107 q -0.09878,-0.239889 -0.183444,-0.437445 -0.07056,-0.211666 -0.155223,-0.451555 -0.08467,-0.239889 -0.169333,-0.536222 -0.08467,-0.310444 -0.211666,-0.733777 0.01411,0.282222 0.02822,0.620889 0.02822,0.338666 0.04233,0.663221 0.02822,0.310444 0.02822,0.564444 0.01411,0.254 0.01411,0.366889 v 4.628441 q 0,0.733777 0.01411,1.199443 0.02822,0.451555 0.09878,0.860777 h -1.975554 q 0.05644,-0.423333 0.08467,-0.888999 0.02822,-0.465666 0.02822,-1.171221 v -7.083773 q 0,-0.691443 -0.02822,-1.171221 -0.01411,-0.479777 -0.08467,-0.917221 h 2.582332 q 0.155222,0.77611 0.52211,1.679221 l 2.864554,6.999105 2.850442,-6.999105 q 0.211666,-0.522111 0.324555,-0.889 0.112889,-0.380999 0.183445,-0.790221 h 2.596442 q -0.02822,0.253999 -0.05644,0.479777 -0.01411,0.225778 -0.02822,0.465666 -0.01411,0.239889 -0.02822,0.522111 0,0.268111 0,0.620888 v 7.083773 q 0,0.77611 0.01411,1.227665 0.02822,0.437445 0.09878,0.832555 h -1.975554 q 0.07056,-0.437444 0.08467,-0.874888 0.02822,-0.451555 0.02822,-1.185332 v -4.684885 q 0.04233,-0.931333 0.07055,-1.467555 0.02822,-0.536222 0.04233,-0.691444 -0.141111,0.578555 -0.324556,1.128888 -0.169333,0.550333 -0.324555,0.931333 l -2.116665,4.967107 q -0.112889,0.254 -0.211667,0.522111 -0.08467,0.254 -0.169333,0.507999 -0.08467,0.254 -0.155222,0.479778 -0.05644,0.211666 -0.08467,0.366888 z"
         style="font-weight:bold;line-height:1.25;word-spacing:-2.64583px;fill:#0f1b26;fill-opacity:1"
         id="path940" />
      <path
         inkscape:connector-curvature="0"
         d="m 68.591582,29.436926 q -0.07055,-0.352777 -0.183444,-0.761999 -0.09878,-0.409222 -0.211666,-0.719666 l -0.564444,-1.53811 h -4.515552 l -0.564444,1.53811 q -0.09878,0.254 -0.169334,0.437444 -0.05644,0.183444 -0.09878,0.338666 -0.04233,0.155222 -0.08467,0.324556 -0.02822,0.155222 -0.07056,0.380999 h -2.314221 q 0.155222,-0.282222 0.352778,-0.719666 0.197555,-0.451555 0.39511,-0.945443 l 3.104442,-8.142105 q 0.197556,-0.536222 0.296334,-0.832555 0.09878,-0.310444 0.155222,-0.592666 h 2.455331 q 0.02822,0.127 0.05644,0.253999 0.02822,0.112889 0.08467,0.268111 0.05644,0.155222 0.127,0.366889 0.08467,0.211666 0.211666,0.536222 l 3.132665,8.142105 q 0.268111,0.677332 0.409222,1.044221 0.155222,0.352777 0.310444,0.620888 z M 65.61414,20.617489 q -0.04233,-0.112889 -0.09878,-0.268111 -0.04233,-0.169333 -0.155223,-0.522111 -0.08467,0.254 -0.141111,0.395111 -0.04233,0.127 -0.07056,0.211666 -0.01411,0.07056 -0.02822,0.112889 -0.01411,0.02822 -0.02822,0.07056 l -1.467555,4.176885 h 3.499553 z"
         style="font-weight:bold;line-height:1.25;word-spacing:-2.64583px;fill:#0f1b26;fill-opacity:1"
         id="path942" />
      <path
         inkscape:connector-curvature="0"
         d="m 75.480885,27.602483 q 0,0.578555 0.01411,0.987777 0.02822,0.409222 0.09878,0.846666 h -2.130776 q 0.07055,-0.451555 0.08467,-0.846666 0.02822,-0.409222 0.02822,-0.987777 v -7.70466 H 71.67089 q -0.634999,0 -1.100666,0.02822 -0.465666,0.01411 -0.832555,0.07056 v -1.890887 q 0.381,0.05644 0.846666,0.08467 0.465667,0.01411 1.072444,0.01411 h 5.587996 q 0.380999,0 0.677333,0 0.296333,-0.01411 0.536221,-0.01411 0.239889,-0.01411 0.451556,-0.02822 0.211666,-0.02822 0.409222,-0.05644 V 19.9966 q -0.395111,-0.05644 -0.860778,-0.07056 -0.451555,-0.02822 -1.213554,-0.02822 h -1.763888 z"
         style="font-weight:bold;line-height:1.25;word-spacing:-2.64583px;fill:#0f1b26;fill-opacity:1"
         id="path944" />
      <path
         inkscape:connector-curvature="0"
         d="m 82.19755,25.937374 q 0.04233,0.479777 0.112889,0.747888 0.08467,0.254 0.282222,0.493888 0.310444,0.409222 0.832555,0.620889 0.536221,0.211666 1.227665,0.211666 1.058333,0 1.650999,-0.437444 0.606777,-0.451555 0.606777,-1.255888 0,-0.437444 -0.197555,-0.77611 -0.183444,-0.338667 -0.508,-0.522111 -0.155222,-0.08467 -0.296333,-0.141111 -0.127,-0.05644 -0.366888,-0.112889 -0.225778,-0.07056 -0.649111,-0.169333 -0.409222,-0.09878 -1.142999,-0.268111 -0.790222,-0.183444 -1.269999,-0.366888 -0.479778,-0.197556 -0.860777,-0.493889 -1.086555,-0.846666 -1.086555,-2.285998 0,-0.733777 0.282222,-1.326444 0.282222,-0.606777 0.804333,-1.03011 0.536222,-0.423333 1.269999,-0.649111 0.733777,-0.225777 1.650998,-0.225777 1.213555,0 2.102554,0.366888 0.889,0.352778 1.41111,1.058333 0.268111,0.352777 0.409222,0.719666 0.155222,0.352778 0.282222,0.917222 l -2.017887,0.239888 Q 86.656658,20.8856 86.571991,20.673933 86.487324,20.462267 86.30388,20.2506 q -0.564444,-0.677333 -1.763888,-0.677333 -0.931332,0 -1.495776,0.423333 -0.564444,0.423333 -0.564444,1.114777 0,0.860777 0.959555,1.28411 0.112888,0.04233 0.211666,0.08467 0.112889,0.02822 0.310444,0.08467 0.197556,0.05644 0.536222,0.141111 0.338667,0.07055 0.931333,0.197555 0.846666,0.183444 1.382888,0.395111 0.536221,0.197555 0.917221,0.465666 0.606777,0.451555 0.888999,1.044222 0.282222,0.578555 0.282222,1.382887 0,1.509888 -0.888999,2.398887 -1.114777,1.072444 -3.372553,1.072444 -0.874888,0 -1.66511,-0.197555 -0.790221,-0.197556 -1.298221,-0.536222 -0.832555,-0.564444 -1.241777,-1.608666 -0.09878,-0.239888 -0.155222,-0.479777 -0.04233,-0.254 -0.112889,-0.691444 z"
         style="font-weight:bold;line-height:1.25;word-spacing:-2.64583px;fill:#0f1b26;fill-opacity:1"
         id="path946" />
      <path
         inkscape:connector-curvature="0"
         d="m 100.32811,18.204491 q -0.0706,0.39511 -0.0988,0.818443 -0.0141,0.423333 -0.0141,1.100666 v 5.009441 q 0,2.201331 -1.241778,3.386664 -1.241777,1.171221 -3.570108,1.171221 -1.185333,0 -2.116665,-0.352777 -0.931333,-0.338667 -1.523999,-0.973666 -1.058333,-1.142999 -1.058333,-3.245553 v -4.981219 q 0,-0.663221 -0.02822,-1.100665 -0.01411,-0.451556 -0.08467,-0.832555 h 2.102553 q -0.07055,0.366888 -0.09878,0.804332 -0.01411,0.437444 -0.01411,1.128888 v 4.981219 q 0,1.439332 0.719666,2.173109 0.733777,0.733777 2.173109,0.733777 1.425221,0 2.144887,-0.733777 0.719667,-0.733777 0.719667,-2.18722 v -4.967108 q 0,-0.677332 -0.02822,-1.100665 -0.01411,-0.437445 -0.08467,-0.832555 z"
         style="font-weight:bold;line-height:1.25;word-spacing:-2.64583px;fill:#0f1b26;fill-opacity:1"
         id="path948" />
      <path
         inkscape:connector-curvature="0"
         d="m 103.97053,25.937374 q 0.0423,0.479777 0.11289,0.747888 0.0847,0.254 0.28222,0.493888 0.31045,0.409222 0.83256,0.620889 0.53622,0.211666 1.22766,0.211666 1.05834,0 1.651,-0.437444 0.60678,-0.451555 0.60678,-1.255888 0,-0.437444 -0.19755,-0.77611 -0.18345,-0.338667 -0.508,-0.522111 -0.15523,-0.08467 -0.29634,-0.141111 -0.127,-0.05644 -0.36689,-0.112889 -0.22577,-0.07056 -0.64911,-0.169333 -0.40922,-0.09878 -1.143,-0.268111 -0.79022,-0.183444 -1.26999,-0.366888 -0.47978,-0.197556 -0.86078,-0.493889 -1.08656,-0.846666 -1.08656,-2.285998 0,-0.733777 0.28223,-1.326444 0.28222,-0.606777 0.80433,-1.03011 0.53622,-0.423333 1.27,-0.649111 0.73377,-0.225777 1.651,-0.225777 1.21355,0 2.10255,0.366888 0.889,0.352778 1.41111,1.058333 0.26811,0.352777 0.40922,0.719666 0.15522,0.352778 0.28222,0.917222 l -2.01788,0.239888 q -0.0706,-0.366888 -0.15523,-0.578555 -0.0847,-0.211666 -0.26811,-0.423333 -0.56444,-0.677333 -1.76388,-0.677333 -0.93134,0 -1.49578,0.423333 -0.56444,0.423333 -0.56444,1.114777 0,0.860777 0.95955,1.28411 0.11289,0.04233 0.21167,0.08467 0.11289,0.02822 0.31044,0.08467 0.19756,0.05644 0.53622,0.141111 0.33867,0.07055 0.93134,0.197555 0.84666,0.183444 1.38288,0.395111 0.53622,0.197555 0.91722,0.465666 0.60678,0.451555 0.889,1.044222 0.28223,0.578555 0.28223,1.382887 0,1.509888 -0.889,2.398887 -1.11478,1.072444 -3.37256,1.072444 -0.87488,0 -1.66511,-0.197555 -0.79022,-0.197556 -1.29822,-0.536222 -0.83255,-0.564444 -1.24177,-1.608666 -0.0988,-0.239888 -0.15523,-0.479777 -0.0423,-0.254 -0.11289,-0.691444 z"
         style="font-weight:bold;line-height:1.25;word-spacing:-2.64583px;fill:#0f1b26;fill-opacity:1"
         id="path950" />
      <path
         inkscape:connector-curvature="0"
         d="m 122.04465,18.204491 q -0.0705,0.437444 -0.0988,0.818443 -0.0141,0.381 -0.0141,0.987777 v 7.605883 q 0,0.310445 0,0.550333 0.0141,0.239889 0.0282,0.451556 0.0141,0.197555 0.0282,0.39511 0.0282,0.197556 0.0564,0.423333 H 119.942 q 0.0564,-0.409222 0.0847,-0.804332 0.0282,-0.395111 0.0282,-1.016 v -3.189108 h -5.67267 v 3.189108 q 0,0.310445 0,0.550333 0.0141,0.239889 0.0282,0.451556 0.0141,0.211666 0.0282,0.409221 0.0282,0.197556 0.0564,0.409222 h -2.10255 q 0.0564,-0.39511 0.0847,-0.790221 0.0282,-0.409222 0.0282,-1.030111 v -7.591771 q 0,-0.620889 -0.0282,-1.016 -0.0282,-0.39511 -0.0847,-0.804332 h 2.10255 q -0.0705,0.451555 -0.0988,0.846666 -0.0141,0.39511 -0.0141,0.959554 v 2.723443 h 5.67267 v -2.709331 q 0,-0.606778 -0.0282,-1.016 -0.0141,-0.423333 -0.0847,-0.804332 z"
         style="font-weight:bold;line-height:1.25;word-spacing:-2.64583px;fill:#0f1b26;fill-opacity:1"
         id="path952" />
      <path
         inkscape:connector-curvature="0"
         d="m 126.19574,18.204491 q -0.0282,0.197555 -0.0564,0.39511 -0.0141,0.183445 -0.0282,0.395111 -0.0141,0.211667 -0.0282,0.465667 0,0.253999 0,0.564444 v 7.591771 q 0,0.620889 0.0141,1.030111 0.0282,0.395111 0.0988,0.790221 h -2.14489 q 0.0564,-0.39511 0.0847,-0.790221 0.0282,-0.409222 0.0282,-1.030111 v -7.591771 q 0,-0.324556 -0.0141,-0.564444 0,-0.254 -0.0141,-0.451556 -0.0141,-0.211666 -0.0423,-0.39511 -0.0141,-0.197556 -0.0423,-0.409222 z"
         style="font-weight:bold;line-height:1.25;word-spacing:-2.64583px;fill:#0f1b26;fill-opacity:1"
         id="path954" />
      <path
         inkscape:connector-curvature="0"
         d="m 129.99118,29.436926 q -0.31044,0 -0.55033,0 -0.23989,0 -0.45155,0 -0.19756,0.01411 -0.39512,0.01411 -0.19755,0.01411 -0.40922,0.02822 0.0423,-0.225778 0.0565,-0.423333 0.0282,-0.197556 0.0423,-0.409222 0.0141,-0.225778 0.0141,-0.479778 0.0141,-0.253999 0.0141,-0.592666 V 19.91193 q 0,-0.493889 -0.0282,-0.889 -0.0282,-0.409221 -0.0847,-0.846666 0.22578,0.01411 0.39511,0.02822 0.16934,0 0.35278,0 0.19756,0 0.42334,0 0.23988,0 0.60677,0 h 3.33022 q 1.651,0 2.52589,0.719666 0.889,0.705555 0.889,2.031998 0,1.255888 -0.79022,1.989665 -0.23989,0.225778 -0.47978,0.352778 -0.22578,0.112889 -0.635,0.239889 0.53622,0.112888 0.83256,0.253999 0.31044,0.127 0.59266,0.395111 0.87489,0.804333 0.87489,2.158998 0,1.495777 -0.94544,2.30011 -0.94545,0.790221 -2.70934,0.790221 z m 3.11856,-6.632217 q 0.80433,0 1.25588,-0.409222 0.45156,-0.409222 0.45156,-1.128888 0,-0.705555 -0.36689,-1.044221 -0.47978,-0.437444 -1.35466,-0.437444 h -2.921 v 3.019775 z m -2.93511,5.037663 h 3.03388 q 0.94545,0 1.45345,-0.451555 0.508,-0.451555 0.508,-1.312332 0,-0.818444 -0.45156,-1.227666 -0.55033,-0.479778 -1.53811,-0.479778 h -3.00566 z"
         style="font-weight:bold;line-height:1.25;word-spacing:-2.64583px;fill:#0f1b26;fill-opacity:1"
         id="path956" />
      <path
         inkscape:connector-curvature="0"
         d="m 146.75385,29.436926 q -0.0705,-0.352777 -0.18344,-0.761999 -0.0988,-0.409222 -0.21167,-0.719666 l -0.56444,-1.53811 h -4.51555 l -0.56445,1.53811 q -0.0988,0.254 -0.16933,0.437444 -0.0565,0.183444 -0.0988,0.338666 -0.0423,0.155222 -0.0847,0.324556 -0.0282,0.155222 -0.0706,0.380999 h -2.31422 q 0.15522,-0.282222 0.35278,-0.719666 0.19755,-0.451555 0.39511,-0.945443 l 3.10444,-8.142105 q 0.19755,-0.536222 0.29633,-0.832555 0.0988,-0.310444 0.15522,-0.592666 h 2.45533 q 0.0282,0.127 0.0564,0.253999 0.0282,0.112889 0.0847,0.268111 0.0564,0.155222 0.127,0.366889 0.0847,0.211666 0.21166,0.536222 l 3.13267,8.142105 q 0.26811,0.677332 0.40922,1.044221 0.15522,0.352777 0.31044,0.620888 z m -2.97744,-8.819437 q -0.0423,-0.112889 -0.0988,-0.268111 -0.0423,-0.169333 -0.15522,-0.522111 -0.0847,0.254 -0.14111,0.395111 -0.0423,0.127 -0.0706,0.211666 -0.0141,0.07056 -0.0282,0.112889 -0.0141,0.02822 -0.0282,0.07056 l -1.46756,4.176885 h 3.49956 z"
         style="font-weight:bold;line-height:1.25;word-spacing:-2.64583px;fill:#0f1b26;fill-opacity:1"
         id="path958" />
    </g>
  </g>
</svg>
